<svg width="311" height="167" viewBox="0 0 311 167" fill="none" xmlns="http://www.w3.org/2000/svg">
<path d="M108.871 50.6154C108.871 50.6154 240.282 48.524 243.23 48.2964C245.808 48.0972 258.157 47.201 259.354 36.7015C259.696 33.7281 258.926 30.7404 257.36 28.1796C255.123 24.509 251.15 17.3529 250.608 15.4749C250.167 13.9384 250.423 12.2739 250.793 10.9081C251.263 9.17239 252.403 7.69279 253.899 6.72536C254.853 6.1136 255.95 5.78642 257.075 5.78642C257.573 5.8291 258.456 6.07088 259.069 6.68264C263.114 10.6946 278.981 29.2465 283.326 35.5917C283.539 35.919 283.796 36.2035 284.024 36.5165C285.305 38.2238 287.456 40.8415 288.168 45.1949C288.781 48.9935 288.396 129.532 288.197 143.816C288.183 145.224 287.599 146.562 286.602 147.543L280.05 153.946C278.668 155.297 277.899 157.161 277.942 159.096L277.97 160.561C278.013 162.724 276.261 164.502 274.096 164.502H106.991C106.991 164.502 86.7082 163.833 60.785 148.966C34.876 134.113 36.044 137.101 23.7518 127.256C15.5618 120.697 8.51128 118.307 4.70826 117.439C3.11299 117.069 2.15867 115.419 2.61447 113.854L7.75638 95.8855C7.75638 95.8855 8.65372 90.0524 15.4051 88.2456C21.8859 86.5099 44.3337 79.6668 50.9 67.0191C50.9 67.0191 53.8199 62.3953 53.5778 49.7618C53.3641 38.5083 52.951 12.3735 53.8057 6.8392C53.9338 6.01404 54.062 5.47339 54.5178 4.94699C55.4294 3.86575 56.9677 3.58124 58.1927 4.26413C58.4633 4.42063 58.7482 4.59136 59.0615 4.80476C60.2865 5.62992 61.312 6.45505 62.0242 7.08103C63.3203 8.19073 64.8301 9.04434 66.5109 9.38579C68.8183 9.85527 71.7382 9.55654 73.1768 5.85754C73.1768 5.85754 74.2024 2.64223 77.1935 2.54264C81.609 2.40037 90.7533 2.25814 97.2911 9.07284C98.8009 10.652 106.265 16.9261 104.74 46.3331C104.74 46.3331 104.57 50.7861 108.843 50.6154H108.871Z" stroke="black" stroke-width="5" stroke-linecap="round" stroke-linejoin="round"/>
<path d="M302.097 15.8017L299.283 12.1602L295.593 15.012L298.406 18.6536L302.097 15.8017Z" fill="white"/>
<path d="M301.227 22.292L298.414 18.6504L294.723 21.5023L297.537 25.1439L301.227 22.292Z" fill="white"/>
<path d="M307.71 23.0771L304.896 19.4355L301.205 22.2874L304.019 25.929L307.71 23.0771Z" fill="white"/>
<path d="M306.843 29.5752L304.029 25.9336L300.338 28.7855L303.152 32.4271L306.843 29.5752Z" fill="white"/>
<path d="M295.613 15.0146L292.799 11.373L289.109 14.2249L291.922 17.8665L295.613 15.0146Z" fill="white"/>
<path d="M299.288 12.1845L296.474 8.54297L292.783 11.3948L295.597 15.0364L299.288 12.1845Z" fill="black"/>
<path d="M304.915 19.4502L302.101 15.8086L298.41 18.6605L301.224 22.3021L304.915 19.4502Z" fill="black"/>
<path d="M304.045 25.9209L301.231 22.2793L297.54 25.1312L300.354 28.7728L304.045 25.9209Z" fill="black"/>
<path d="M298.421 18.6572L295.607 15.0156L291.916 17.8675L294.73 21.5091L298.421 18.6572Z" fill="black"/>
<path d="M310.54 26.7158L307.727 23.0742L304.036 25.9261L306.85 29.5677L310.54 26.7158Z" fill="black"/>
<path d="M294.717 21.5146L291.903 17.873L288.213 20.7249L291.027 24.3665L294.717 21.5146Z" fill="white"/>
<path d="M300.347 28.7803L297.533 25.1387L293.843 27.9906L296.656 31.6321L300.347 28.7803Z" fill="white"/>
<path d="M291.925 17.8584L289.111 14.2168L285.421 17.0687L288.235 20.7103L291.925 17.8584Z" fill="black"/>
<path d="M297.554 25.1513L294.74 21.5098L291.05 24.3616L293.863 28.0032L297.554 25.1513Z" fill="black"/>
<path d="M303.164 32.4111L300.351 28.7695L296.66 31.6214L299.474 35.263L303.164 32.4111Z" fill="black"/>
<path d="M289.183 31.8207L286.124 27.8652L279.004 33.3706L282.063 37.326L289.183 31.8207Z" fill="black"/>
</svg>
