<svg width="305" height="156" viewBox="0 0 305 156" fill="none" xmlns="http://www.w3.org/2000/svg">
<path d="M117.471 152.401L241.553 153.496C241.553 153.496 273.249 153.85 289.43 147.631C300.535 143.349 302.364 133.964 302.497 128.863C302.619 123.983 299.305 119.523 294.484 118.682C294.207 118.638 293.908 118.593 293.609 118.56C287.092 117.874 186.106 115.937 166.756 115.572C164.816 115.539 162.987 114.698 161.68 113.259C159.862 111.279 156.948 108.567 153.955 107.627C150.841 106.642 146.308 107.361 143.382 108.025C141.531 108.446 139.592 107.903 138.218 106.598L85.5636 56.7441C79.1689 50.6909 73.4722 43.9626 68.5737 36.6478L48.6799 6.99025C46.4079 3.60398 42.3299 1.91084 38.3179 2.68548L8.43886 8.49526C8.43886 8.49526 3.04146 9.87854 2.53166 16.1974C2.36542 18.2557 2.86375 20.3029 3.7947 22.1399C6.58756 27.662 13.7031 42.3026 16.9836 54.4977C17.2053 55.3055 17.371 56.1244 17.5594 56.9322C17.77 57.8286 18.2468 59.3115 19.211 59.6324C20.5963 60.1082 24.3644 59.2783 24.3866 62.9633C24.4198 66.6484 32.4551 114.842 32.4551 114.842C32.4551 114.842 35.6463 137.096 53.9106 147.011C72.164 156.938 99.3724 153.341 110.422 147.388C110.422 147.388 115.875 144.455 115.365 149.313C115.365 149.313 115.132 152.323 117.448 152.412L117.471 152.401Z" stroke="black" stroke-width="5" stroke-miterlimit="10"/>
<path d="M245.5 146.5H240.5V155.5H245.5V146.5Z" fill="black"/>
</svg>
