<svg width="328" height="180" viewBox="0 0 328 180" fill="none" xmlns="http://www.w3.org/2000/svg">
<path d="M238.34 51.4733C243.294 54.5932 247.616 58.6028 251.316 63.1486L322.15 150.177C322.15 150.177 330.002 157.989 321.664 172.906C321.384 173.418 321.054 173.917 320.677 174.356C308.808 188.237 291.876 151.761 290.927 149.945C284.536 138.721 266.593 156.392 263.148 126.79C262.637 122.402 257.475 114.261 245.423 115.334C244.864 115.383 244.304 115.395 243.744 115.37C233.871 115.054 224.243 107.254 233.617 87.3401C234.031 86.4748 234.347 85.5485 234.493 84.5979C234.943 81.7462 234.834 76.8469 230.172 72.8983C229.794 72.5814 229.125 72.1305 228.699 71.8746C198.79 54.1423 183.987 70.1562 164.34 95.8588C161.127 100.076 141.005 98.8569 139.07 98.8813C139.07 98.8813 135.405 99.0275 134.76 95.4323C134.225 92.4586 128.673 61.3449 127.297 53.6914C127.127 52.7651 127.297 53.1673 126.677 50.9371C126.64 50.7908 126.616 50.7177 126.579 50.6202C124.656 44.5876 132.204 32.4126 133.348 29.9021C133.348 29.9021 134.87 26.6481 132.386 24.9907C127.152 21.0298 120.444 35.9469 117.352 41.7236C116.512 43.2958 116.427 43.4542 115.965 44.417C108.977 58.9806 61.0521 68.389 41.5267 32.4492C41.5267 32.4492 38.1917 25.9291 31.5209 9.37894C31.5209 9.37894 29.0261 2.70038 16.9383 2.50538C16.9383 2.50538 7.22399 2.06666 3.51124 9.11083C2.91477 10.232 2.57354 11.4995 2.51268 12.7792C1.11279 42.7839 116.05 77.8828 136.331 85.4023C137.292 85.7557 138.278 85.9751 139.288 86.0482C143.634 86.3407 154.066 85.6826 165.923 75.287C184.949 58.7368 185.582 55.8485 194.066 50.5227C194.359 50.3399 195.332 49.7915 195.649 49.6574C200.481 47.744 203.257 58.2494 207.798 53.0942C215.589 44.2463 225.801 43.6004 238.315 51.4855L238.34 51.4733Z" stroke="black" stroke-width="5" stroke-miterlimit="10"/>
<path d="M271.443 45.463L268.423 41.9902L264.904 45.0508L267.924 48.5235L271.443 45.463Z" fill="white"/>
<path d="M270.951 51.9942L267.931 48.5215L264.412 51.5821L267.431 55.0548L270.951 51.9942Z" fill="white"/>
<path d="M277.468 52.4024L274.448 48.9297L270.928 51.9903L273.948 55.4629L277.468 52.4024Z" fill="white"/>
<path d="M276.978 58.9395L273.958 55.4668L270.438 58.5274L273.458 62.0001L276.978 58.9395Z" fill="white"/>
<path d="M264.925 45.0528L261.905 41.5801L258.386 44.6407L261.406 48.1134L264.925 45.0528Z" fill="white"/>
<path d="M268.43 42.0137L265.41 38.541L261.89 41.6016L264.91 45.0743L268.43 42.0137Z" fill="black"/>
<path d="M274.468 48.9434L271.448 45.4707L267.929 48.5313L270.949 52.004L274.468 48.9434Z" fill="black"/>
<path d="M273.973 55.4532L270.954 51.9805L267.434 55.0411L270.454 58.5138L273.973 55.4532Z" fill="black"/>
<path d="M267.939 48.5255L264.919 45.0527L261.399 48.1133L264.419 51.586L267.939 48.5255Z" fill="black"/>
<path d="M280.504 55.8712L277.484 52.3984L273.965 55.459L276.985 58.9317L280.504 55.8712Z" fill="black"/>
<path d="M264.407 51.5938L261.387 48.1211L257.867 51.1817L260.887 54.6544L264.407 51.5938Z" fill="white"/>
<path d="M270.447 58.5215L267.427 55.0488L263.908 58.1094L266.928 61.5821L270.447 58.5215Z" fill="white"/>
<path d="M261.408 48.1055L258.388 44.6328L254.869 47.6934L257.888 51.1661L261.408 48.1055Z" fill="black"/>
<path d="M267.449 55.0606L264.429 51.5879L260.91 54.6485L263.929 58.1212L267.449 55.0606Z" fill="black"/>
<path d="M273.47 61.9825L270.45 58.5098L266.931 61.5704L269.95 65.0431L273.47 61.9825Z" fill="black"/>
<path d="M259.478 62.2016L256.195 58.4297L249.406 64.3377L252.688 68.1096L259.478 62.2016Z" fill="black"/>
</svg>
