<svg width="286" height="185" viewBox="0 0 286 185" fill="none" xmlns="http://www.w3.org/2000/svg">
<path d="M78.363 166.309L132.665 17.533C133.833 14.3174 135.554 11.2901 137.891 8.80297C142.036 4.39397 149.259 -0.0150297 160.124 4.20555C160.124 4.20555 172.283 8.68992 168.641 20.6106C168.641 20.6106 165.664 28.9135 159.546 27.9714C158.077 27.7453 156.758 26.9414 155.715 25.8863C154.761 24.9065 153.517 23.4117 152.6 21.4396C151.758 19.6433 150.075 18.9399 148.555 18.6887C146.382 18.337 144.109 18.8394 142.488 20.3216C141.106 21.5778 139.926 23.7257 140.767 27.268C142.463 34.34 148.518 38.2717 148.518 38.2717C148.518 38.2717 151.947 41.1356 156.708 40.7839C161.468 40.4322 215.695 32.7698 215.695 32.7698C215.695 32.7698 219.438 31.9408 224.011 33.222C228.583 34.5033 263.755 43.0826 263.755 43.0826C263.755 43.0826 270.864 45.2683 265.94 50.5817C261.016 55.8951 250.276 56.7116 250.276 56.7116C250.276 56.7116 226.963 57.4527 206.94 54.8525C186.917 52.2398 178.828 67.8911 178.828 67.8911C178.828 67.8911 171.442 78.5556 179.87 95.2998C180.988 97.5105 182.37 99.5832 183.865 101.568C187.294 106.14 195.296 118.902 186.993 129.265C183.099 134.127 176.868 136.438 170.663 135.973C167.711 135.747 163.855 135.219 158.868 134.152C157.336 133.825 155.728 133.75 154.208 134.114C150.992 134.88 146.998 137.594 150.465 146.751L153.542 155.267C153.542 155.267 154.484 159.061 159.936 159.174C165.387 159.287 253.203 161.661 253.203 161.661C253.203 161.661 258.202 161.711 256.532 155.531C254.861 149.351 251.608 143.698 260.539 141.563C263.642 140.822 266.907 140.897 269.972 141.739C276.554 143.548 286.754 149.15 281.026 166.359C281.026 166.359 275.06 181.118 258.918 181.269C242.777 181.42 4.41488 182.5 4.41488 182.5C4.41488 182.5 0.483206 182.01 3.88731 177.702C5.20624 176.018 7.44214 174.699 9.67804 173.695C13.145 172.15 16.9008 171.371 20.6943 171.22L75.2604 169.047C75.2604 169.047 77.7726 168.494 78.3755 166.359L78.363 166.309Z" stroke="black" stroke-width="5" stroke-miterlimit="10"/>
<path d="M109.98 100.225L111.655 95.5137L103.174 92.4999L101.5 97.2112L109.98 100.225Z" fill="black"/>
</svg>
