<svg width="313" height="157" viewBox="0 0 313 157" fill="none" xmlns="http://www.w3.org/2000/svg">
<path d="M244.834 151.514L121.558 154.5C120.369 154.38 119.463 153.417 119.267 152.247C118.645 148.419 114.882 134.836 93.34 137.997C68.3401 141.661 20.598 130.877 18.0784 128.81C15.5588 126.743 17.3477 123.375 17.3477 123.375C17.3477 123.375 24.4266 112.778 26.3463 110.175C28.2661 107.583 25.5059 105.144 25.5059 105.144C25.5059 105.144 5.46882 87.2631 3.91996 85.3164C2.382 83.3697 2.5022 81.6527 2.5022 81.6527C3.04757 72.488 5.14185 60.5892 5.81811 56.9364C5.949 56.2037 6.17844 55.4819 6.48385 54.8038C12.5593 41.2974 17.1291 29.6283 17.5 24.2038C17.7836 19.9824 19.8673 19.2059 20.8489 19.0747C21.0889 19.0419 21.0891 19.0528 21.569 19.0965C22.9106 19.2278 30.4358 20.2777 39.1509 12.0316C48.7604 2.93254 57.6721 1.94827 65.0892 2.70288C72.5063 3.45749 80.2946 8.12733 92.98 17.6967C105.676 27.266 109.177 37.9837 109.177 37.9837C128.058 92.6438 163.966 88.127 169.801 88.127C175.637 88.127 193.373 86.2897 194.769 86.1804C196.154 86.0601 197.223 84.6711 197.223 84.6711L205.97 72.6083C207.367 70.2242 209.559 70.0054 209.559 70.0054L213.05 69.5133C251.16 65.1169 251.487 65.5106 258.697 67.5994C265.94 69.6883 306.548 92.4141 309.144 94.3389C311.74 96.2637 309.81 99.5118 309.81 99.5118C309.81 99.5118 298.607 119.121 294.931 126.35C292.335 131.424 287.776 132.485 285.289 132.671C284.351 132.747 283.414 132.638 282.508 132.408L282.294 132.354C277.138 131.053 257.83 126.18 255.141 125.792C252.044 125.344 252.273 128.624 252.273 128.624C252.273 128.624 252.491 131.763 253.112 141.234C253.461 146.44 251.269 149.021 249.23 150.289C247.921 151.11 246.383 151.482 244.834 151.514Z" stroke="black" stroke-width="5" stroke-miterlimit="10"/>
<path d="M183.5 145.481L178.5 145.521L178.574 154.521L183.573 154.48L183.5 145.481Z" fill="black"/>
</svg>
