<svg width="277" height="166" viewBox="0 0 277 166" fill="none" xmlns="http://www.w3.org/2000/svg">
<path d="M174.15 136.361L237.499 62.9683C237.499 62.9683 242.715 57.0945 240.878 50.5996C239.041 44.1046 234.716 44.1046 234.716 44.1046C234.716 44.1046 232.794 43.8646 230.151 43.9634C227.509 44.0622 220.642 44.6835 217.575 39.2051C214.509 33.7268 219.625 28.2484 219.625 28.2484C219.625 28.2484 222.026 25.1562 228.611 27.1471C235.196 29.152 248.677 36.6354 248.677 36.6354C248.677 36.6354 252.041 38.3297 256.789 43.328C262.356 49.1594 265.987 56.5862 267.302 64.5355L267.344 64.7614C268.447 71.5106 273.138 112.217 274.367 122.962C274.692 125.828 274.438 128.751 273.42 131.462C272.474 133.989 270.806 136.7 267.895 138.225C261.677 141.473 248.211 149.817 202.865 151.286C196.364 151.498 189.949 153.248 184.481 156.778C183.633 157.329 182.798 157.922 181.979 158.571C181.979 158.571 177.598 161.932 170.264 157.541C162.93 153.15 152.388 152.542 146.948 157.202C141.507 161.861 133.044 169.924 123.647 154.449C114.25 138.974 114.8 142.856 99.7925 135.444C84.7854 128.031 21.3517 97.9846 7.27721 85.5454C7.27721 85.5454 2.41631 82.1567 2.5011 75.0546C2.57175 67.9524 5.70895 64.6626 9.67976 62.4458C13.6506 60.2291 19.3734 58.3088 25.7041 53.7482C32.0348 49.2017 53.6266 27.8672 53.6266 27.8672C53.6266 27.8672 55.9728 25.8198 53.726 23.476L50.0801 20.2709C50.0801 20.2709 47.0276 18.0259 49.2038 14.1007C51.38 10.1754 59.3508 5.58659 59.3508 5.58659C59.3508 5.58659 63.9989 3.07331 68.5774 2.56501C68.5774 2.56501 71.1637 2.07083 73.8627 3.80753C76.2508 5.34656 123.703 39.7134 134.513 47.5356C137.099 49.4135 138.907 52.2657 139.176 55.4567C139.204 55.7391 139.219 56.0356 139.219 56.3321C139.219 60.5115 138.145 71.6094 137.679 73.925C137.438 75.1393 135.093 86.9997 145.14 96.7845C155.187 106.569 161.094 115.874 161.094 115.874C161.094 115.874 164.414 120.759 158.762 122.623C153.109 124.487 147.188 125.165 143.118 128.271C140.829 130.022 142.342 132.253 144.094 133.876C145.578 135.246 147.386 136.22 149.294 136.856C154.989 138.748 169.487 142.786 174.15 136.404V136.361Z" stroke="black" stroke-width="5" stroke-linecap="round" stroke-linejoin="round"/>
<path d="M88.5002 22.8148L92.5635 25.7285L97.8082 18.4146L93.745 15.5009L88.5002 22.8148Z" fill="black"/>
</svg>
