<svg width="317" height="177" viewBox="0 0 317 177" fill="none" xmlns="http://www.w3.org/2000/svg">
<path d="M314.109 137.117C308.154 149.293 300.959 161.593 293.172 172.69L292.694 173.349C292.068 174.155 290.678 175.03 288.914 174.099L243.738 149.02L160.375 99.8399C150.914 94.2631 140.758 89.9584 130.158 87.0394L97.4382 78.0325C94.3414 77.1693 91.0624 77.2488 87.9998 78.237L76.0332 82.11C73.7903 82.837 71.4004 83.0073 69.0664 82.6211L43.9501 78.4187C40.2499 77.794 36.4583 77.8621 32.7695 78.5891C25.631 80.0088 15.3512 81.8942 13.5637 82.1214C9.84074 82.5871 9.5333 77.5328 9.5333 77.5328C8.57694 70.8202 4.72818 41.5278 2.67885 35.2241C1.8705 31.8849 3.95394 31.2034 5.47955 30.2493C12.5497 25.8083 19.3012 19.8454 23.4568 15.9155C26.4283 13.1101 29.9467 10.9634 33.7835 9.5777C40.2047 7.26066 49.5174 3.6261 51.5439 3.0582C52.1018 2.89919 52.6596 2.7856 53.2061 2.69474C55.8702 2.25178 58.5918 2.59251 61.1535 3.433C75.2711 8.10115 95.8557 21.4582 102.892 26.1718C104.269 27.0918 104.645 28.9318 103.757 30.3288L101.947 33.157C100.808 34.9288 100.955 37.2345 102.31 38.8587L103.518 40.3011C104.451 41.4256 104.998 42.834 105.043 44.2992C105.077 45.0829 105.362 45.8325 105.875 46.4345C106.546 47.2182 106.614 48.3653 106.034 49.2172C99.8061 58.4967 98.1894 60.8024 92.0869 69.7071C91.6201 70.3885 91.4831 71.2404 91.7222 72.0241L91.7912 72.274C92.1213 73.353 93.0545 74.1367 94.1816 74.273C97.4947 74.6705 99.749 74.9885 103.381 76.0108L140.178 86.392C140.565 86.5056 141.875 86.9372 142.307 87.0508C143.503 87.3574 145.586 87.7095 146.132 85.8127C146.143 85.7787 146.406 85.0631 146.406 85.029C147.567 81.5989 150.139 80.3495 153.168 81.2809C157.505 82.6211 165.237 85.1767 171.498 88.1752C177.851 91.2192 185.73 95.433 190.034 97.7727C191.764 98.7041 193.904 97.8409 194.849 96.3643C199.016 89.8903 204.64 80.4631 207.897 75.67C209.183 73.7732 211.677 73.1145 213.726 74.1367C233.434 83.9955 296.712 122.227 312.458 131.767C314.45 132.971 315.088 135.538 313.904 137.537L314.109 137.117Z" stroke="black" stroke-width="5" stroke-miterlimit="10"/>
<path d="M263.725 129.024L259.71 126.775L257.431 130.845L261.446 133.094L263.725 129.024Z" fill="white"/>
<path d="M265.467 135.339L261.452 133.09L259.173 137.159L263.188 139.408L265.467 135.339Z" fill="white"/>
<path d="M271.739 133.522L267.724 131.273L265.445 135.343L269.46 137.592L271.739 133.522Z" fill="white"/>
<path d="M273.485 139.841L269.47 137.592L267.191 141.661L271.206 143.91L273.485 139.841Z" fill="white"/>
<path d="M257.452 130.841L253.437 128.592L251.157 132.661L255.172 134.91L257.452 130.841Z" fill="white"/>
<path d="M259.724 126.796L255.708 124.547L253.429 128.616L257.444 130.865L259.724 126.796Z" fill="black"/>
<path d="M267.747 131.278L263.732 129.029L261.453 133.099L265.468 135.348L267.747 131.278Z" fill="black"/>
<path d="M269.48 137.573L265.465 135.324L263.186 139.394L267.201 141.642L269.48 137.573Z" fill="black"/>
<path d="M261.46 133.091L257.445 130.842L255.166 134.911L259.181 137.16L261.46 133.091Z" fill="black"/>
<path d="M275.769 135.763L271.753 133.514L269.474 137.583L273.489 139.832L275.769 135.763Z" fill="black"/>
<path d="M259.172 137.171L255.157 134.922L252.878 138.991L256.893 141.24L259.172 137.171Z" fill="white"/>
<path d="M267.197 141.651L263.182 139.402L260.903 143.472L264.918 145.721L267.197 141.651Z" fill="white"/>
<path d="M255.171 134.899L251.156 132.65L248.877 136.72L252.892 138.969L255.171 134.899Z" fill="black"/>
<path d="M263.207 139.407L259.191 137.158L256.912 141.228L260.927 143.476L263.207 139.407Z" fill="black"/>
<path d="M271.211 143.89L267.196 141.641L264.917 145.71L268.932 147.959L271.211 143.89Z" fill="black"/>
<path d="M258.115 148.821L253.752 146.379L249.357 154.233L253.72 156.674L258.115 148.821Z" fill="black"/>
</svg>
