<svg width="254" height="239" viewBox="0 0 254 239" fill="none" xmlns="http://www.w3.org/2000/svg">
<path d="M7.04544 9.6656V210.434C7.04544 210.434 6.56482 225.068 21.6933 226.375C21.6933 226.375 27.1859 227.277 32.9041 222.033C38.6373 216.789 37.9768 209.983 37.9768 209.983L38.0075 177.979C38.0075 177.979 37.7216 168.092 47.2969 167.296C52.0846 166.89 54.8007 168.874 56.3166 170.947C57.6223 172.72 58.1786 174.929 58.0886 177.138C57.7884 184.966 56.5426 213.995 54.2163 220.621C54.2163 220.621 50.1333 230.703 60.2489 230.943C69.4191 231.153 136.672 235.631 149.099 236.457C151.08 236.593 153.076 236.412 154.967 235.826C158.314 234.775 162.967 232.295 165.293 226.451C169.15 216.714 174.793 198.473 174.793 198.473C174.793 198.473 176.489 192.523 183.678 187.881C189.651 184.034 207.916 173.577 213.904 170.151C216.141 168.874 218.063 167.041 219.248 164.742C220.179 162.954 220.824 160.715 220.389 158.191C219.578 153.398 212.915 143.12 209.748 138.447C207.872 135.668 207.241 132.152 208.397 128.996C208.697 128.185 209.117 127.374 209.688 126.623C212.795 122.551 231.57 96.9175 231.57 96.9175C231.57 96.9175 232.486 95.1595 236.628 95.6253C241.146 96.1512 242.466 95.43 242.466 95.43C242.466 95.43 245.197 94.4233 245.963 85.1677C246.773 75.3111 250.436 57.2507 250.871 51.2556C251.307 45.2755 250.541 37.1018 250.001 31.888C249.581 27.8011 246.038 20.7693 237.694 19.6574C232.141 18.9062 226.437 20.9195 222.625 25.0365C222.085 25.6224 221.56 26.2685 221.064 26.9747C217.627 31.9782 198.912 57.1155 198.912 57.1155C198.912 57.1155 196.33 60.8267 192.202 61.0221C187.76 61.2324 171.656 59.0688 155.672 62.9753C139.628 66.8819 81.5318 78.5416 81.5318 78.5416C81.5318 78.5416 73.6062 79.6985 71.6401 87.4065C69.4639 95.9108 63.1759 109.298 63.1759 109.298C63.1759 109.298 57.4572 120.026 48.062 116.21C48.062 116.21 37.4066 113.355 38.4721 98.1496C38.6372 95.8507 38.7876 93.5518 38.7726 91.2529L38.7272 54.7114C38.7272 45.8164 37.2272 36.9515 34.0004 28.6576C32.5746 24.9764 30.7734 21.2952 28.5672 18.245C24.1698 12.1748 21.5727 8.49362 20.402 6.55536C19.6366 5.27821 18.5862 4.16632 17.2655 3.44511C15.9448 2.7239 14.144 2.21302 11.9378 2.67881C6.98505 3.73058 7 9.6806 7 9.6806L7.04544 9.6656Z" stroke="black" stroke-width="5" stroke-miterlimit="10"/>
<path d="M-2.18557e-07 155.5L0 160.5L9 160.5L9 155.5L-2.18557e-07 155.5Z" fill="black"/>
</svg>
