<svg width="307" height="192" viewBox="0 0 307 192" fill="none" xmlns="http://www.w3.org/2000/svg">
<path d="M287.447 17.279C289.714 33.8421 297.191 88.6472 301.437 122.014C301.666 123.844 301.268 125.71 300.315 127.286L293.501 138.505C291.559 141.695 288.014 143.549 284.275 143.308C273.951 142.634 252.664 141.322 237.986 140.973C231.763 140.828 226.817 135.749 226.817 129.537V128.406C226.817 125.324 224.635 122.977 221.801 122.785C206.472 121.749 159.664 118.632 133.71 117.572C127.655 117.332 123.964 116.718 118.066 112.047C117.716 111.771 116.45 110.699 116.112 110.386C114.375 108.737 113.302 107.762 110.818 105.62L86.9379 86.4323C85.5148 85.2888 83.4161 85.7703 82.6201 87.4074C78.7728 95.3639 68.9188 116.597 65.3006 132.077C61.8753 146.763 57.582 174.713 55.6885 187.448C55.3629 189.639 52.5161 190.265 51.2859 188.411C47.8124 183.175 41.9278 175.519 34.7637 170.837C33.1596 169.79 31.1692 168.947 29.5531 167.924C25.947 165.649 21.9548 162.11 23.173 149.675C23.3659 147.738 21.9182 146.016 19.9764 145.86H19.9046C18.2402 145.715 16.6726 145.101 15.37 144.09L8.21725 138.541C5.92572 136.772 4.15364 134.424 3.05612 131.752C1.99478 129.164 2.47636 126.215 4.29752 124.097C6.98706 120.979 9.35137 117.609 11.3655 114.021C17.4923 103.104 31.2896 78.3434 38.0074 64.8137C39.8647 61.0701 42.4823 57.7719 45.6784 55.0876L45.7985 54.9913C48.5001 52.7284 52.3725 52.6561 55.1585 54.7747C59.6813 58.2173 66.3628 63.8748 77.3742 76.7064C78.0978 77.549 79.3632 77.7054 80.2315 77.0073C81.3773 76.0925 82.994 74.1786 85.0323 70.1581C88.1439 64.0072 91.5328 57.9886 95.3922 52.271C96.8033 50.1885 98.2745 48.058 99.7218 46.1079C102.086 42.894 106.537 42.0635 109.89 44.2301C120.31 50.983 142.911 65.3553 159.072 73.7211C165.525 77.0554 172.581 79.0536 179.817 79.6314C196.762 80.9675 232.258 83.6759 253.858 84.5064C255.993 84.5907 258.139 84.4342 260.225 83.9527C260.286 83.9407 260.335 83.9286 260.395 83.9166C265.002 82.7971 268.09 78.4397 267.728 73.7091C266.956 63.3812 264.712 53.2219 261.082 43.532L256.511 31.3263C255.232 27.9198 254.702 24.2846 254.955 20.6614L255.896 6.96315C256.173 2.90664 261.082 1.02884 264 3.85757C265.87 5.66314 267.8 7.38445 269.79 9.04557L271.057 10.0928C273.191 11.8743 275.917 12.8012 278.703 12.6928L281.815 12.5845C284.625 12.4882 287.048 14.5225 287.422 17.291L287.447 17.279Z" stroke="black" stroke-width="5" stroke-linecap="round" stroke-linejoin="round"/>
<path d="M306.104 103.456L305.414 98.5039L296.5 99.7467L297.19 104.699L306.104 103.456Z" fill="black"/>
</svg>
