<svg width="269" height="173" viewBox="0 0 269 173" fill="none" xmlns="http://www.w3.org/2000/svg">
<path d="M96.5004 52.525C102.619 47.3889 109.469 43.1575 116.785 39.9641L200.012 3.69186C200.012 3.69186 204.814 0.764542 208.578 4.07774L211.797 7.7236C211.797 7.7236 214.138 10.3582 218.834 8.60178C223.516 6.84539 229.048 4.25073 229.048 4.25073C229.048 4.25073 233.784 2.34795 236.91 5.12891C240.036 7.90987 265.388 36.3848 265.388 36.3848C265.388 36.3848 268.461 40.483 264.39 44.701C262.355 46.8167 260.28 47.0163 258.71 46.6837C257.353 46.4042 256.17 45.5925 255.278 44.5414L244.04 31.2487C244.04 31.2487 242.124 29.0665 239.304 28.8003C236.484 28.5342 232.122 31.0624 221.933 36.2783C211.744 41.4943 179.262 51.1545 179.262 51.1545C179.262 51.1545 173.742 52.6048 171.561 59.4042C171.029 61.0808 170.868 62.8372 170.922 64.5936L171.041 68.1064C171.121 70.6212 171.348 73.136 171.72 75.6243C171.72 75.6243 172.651 84.2199 181.403 87.2138C190.301 90.2609 220.456 97.1401 225.284 98.8965C230.113 100.666 231.456 101.97 233.318 104.139C235.18 106.321 234.981 111.763 233.625 114.052C232.281 116.341 230.086 118.776 231.802 124.271C233.252 128.915 238.479 130.751 240.953 131.829C242.895 132.681 260.613 140.797 260.613 140.797C260.613 140.797 260.945 140.944 261.411 141.263C264.217 143.166 265.042 146.958 263.446 149.965L255.572 164.788C255.572 164.788 252.446 170.616 246.035 170.496C239.624 170.376 229.568 168.234 221.268 163.457C212.968 158.68 203.165 150.125 200.145 145.973C197.126 141.822 184.183 123.592 180.91 119.694C177.638 115.795 166.838 107.745 143.321 103.221C143.321 103.221 134.383 101.159 124.846 108.384C114.618 116.128 100.332 122.847 81.856 125.868C81.856 125.868 74.7397 126.999 71.1084 128.05C67.4905 129.088 67.8636 125.855 67.8636 125.855L67.6766 122.275C67.6766 122.275 67.5307 120.918 66.1607 120.199C65.2828 119.734 64.1918 120.426 63.5134 120.985C62.7153 121.65 61.9178 122.328 61.1065 122.967L6.76983 165.4C6.76983 165.4 2.10179 169.352 2.52743 163.817C2.82006 160.051 7.03611 149.087 9.69637 142.46C11.0664 139.054 12.7424 135.781 14.6844 132.667L16.4808 129.793C19.3938 125.123 22.7054 120.718 26.3633 116.62L35.0754 106.867C37.4962 104.152 40.0367 101.558 42.6171 99.003C44.6921 96.9538 47.8177 93.2414 50.7174 87.4134C51.2894 86.2691 51.7687 85.0981 52.2476 83.9139C53.0324 82.0244 55.7861 77.2742 63.9265 75.4513C73.0113 73.4022 75.3789 70.2486 96.5147 52.5383L96.5004 52.525Z" stroke="black" stroke-width="5" stroke-miterlimit="10"/>
<path d="M45.0383 144.669L48.9795 141.592L43.4413 134.498L39.5 137.574L45.0383 144.669Z" fill="black"/>
</svg>
