<svg width="313" height="157" viewBox="0 0 313 157" fill="none" xmlns="http://www.w3.org/2000/svg">
<path d="M244.834 151.514L121.558 154.5C120.369 154.38 119.463 153.417 119.267 152.247C118.645 148.419 114.882 134.836 93.34 137.997C68.3401 141.661 20.598 130.877 18.0784 128.81C15.5588 126.743 17.3477 123.375 17.3477 123.375C17.3477 123.375 24.4266 112.778 26.3463 110.175C28.2661 107.583 25.5059 105.144 25.5059 105.144C25.5059 105.144 5.46882 87.2631 3.91996 85.3164C2.382 83.3697 2.5022 81.6527 2.5022 81.6527C3.04757 72.488 5.14185 60.5892 5.81811 56.9364C5.949 56.2037 6.17844 55.4819 6.48385 54.8038C12.5593 41.2974 17.1291 29.6283 17.5 24.2038C17.7836 19.9824 19.8673 19.2059 20.8489 19.0747C21.0889 19.0419 21.0891 19.0528 21.569 19.0965C22.9106 19.2278 30.4358 20.2777 39.1509 12.0316C48.7604 2.93254 57.6721 1.94827 65.0892 2.70288C72.5063 3.45749 80.2946 8.12733 92.98 17.6967C105.676 27.266 109.177 37.9837 109.177 37.9837C128.058 92.6438 163.966 88.127 169.801 88.127C175.637 88.127 193.373 86.2897 194.769 86.1804C196.154 86.0601 197.223 84.6711 197.223 84.6711L205.97 72.6083C207.367 70.2242 209.559 70.0054 209.559 70.0054L213.05 69.5133C251.16 65.1169 251.487 65.5106 258.697 67.5994C265.94 69.6883 306.548 92.4141 309.144 94.3389C311.74 96.2637 309.81 99.5118 309.81 99.5118C309.81 99.5118 298.607 119.121 294.931 126.35C292.335 131.424 287.776 132.485 285.289 132.671C284.351 132.747 283.414 132.638 282.508 132.408L282.294 132.354C277.138 131.053 257.83 126.18 255.141 125.792C252.044 125.344 252.273 128.624 252.273 128.624C252.273 128.624 252.491 131.763 253.112 141.234C253.461 146.44 251.269 149.021 249.23 150.289C247.921 151.11 246.383 151.482 244.834 151.514Z" stroke="black" stroke-width="5" stroke-miterlimit="10"/>
<path d="M174.698 125.8L170.097 125.896L170.195 130.56L174.796 130.463L174.698 125.8Z" fill="white"/>
<path d="M179.4 130.36L174.799 130.457L174.897 135.12L179.498 135.023L179.4 130.36Z" fill="white"/>
<path d="M183.886 125.614L179.285 125.711L179.383 130.374L183.984 130.277L183.886 125.614Z" fill="white"/>
<path d="M188.594 130.177L183.993 130.273L184.091 134.937L188.692 134.84L188.594 130.177Z" fill="white"/>
<path d="M170.21 130.546L165.609 130.643L165.707 135.306L170.309 135.209L170.21 130.546Z" fill="white"/>
<path d="M170.119 125.907L165.518 126.004L165.616 130.667L170.217 130.57L170.119 125.907Z" fill="black"/>
<path d="M179.308 125.704L174.707 125.801L174.805 130.464L179.406 130.367L179.308 125.704Z" fill="black"/>
<path d="M183.993 130.253L179.392 130.35L179.49 135.013L184.091 134.916L183.993 130.253Z" fill="black"/>
<path d="M174.807 130.454L170.206 130.551L170.304 135.214L174.905 135.117L174.807 130.454Z" fill="black"/>
<path d="M188.495 125.503L183.894 125.6L183.992 130.263L188.593 130.166L188.495 125.503Z" fill="black"/>
<path d="M174.902 135.13L170.301 135.227L170.399 139.89L175 139.793L174.902 135.13Z" fill="white"/>
<path d="M184.091 134.925L179.49 135.021L179.588 139.685L184.189 139.588L184.091 134.925Z" fill="white"/>
<path d="M170.303 135.2L165.702 135.297L165.8 139.96L170.401 139.863L170.303 135.2Z" fill="black"/>
<path d="M179.514 135.013L174.913 135.109L175.011 139.773L179.612 139.676L179.514 135.013Z" fill="black"/>
<path d="M188.686 134.819L184.085 134.916L184.184 139.579L188.785 139.482L188.686 134.819Z" fill="black"/>
<path d="M179.898 145.71L174.899 145.816L175.091 154.814L180.09 154.708L179.898 145.71Z" fill="black"/>
</svg>
