<svg width="328" height="180" viewBox="0 0 328 180" fill="none" xmlns="http://www.w3.org/2000/svg">
<path d="M248.5 63.2848L251.714 67.1152L258.609 61.3307L255.395 57.5002L248.5 63.2848Z" fill="black"/>
<path d="M238.34 51.4733C243.294 54.5932 247.616 58.6028 251.316 63.1486L322.15 150.177C322.15 150.177 330.002 157.989 321.664 172.906C321.384 173.418 321.054 173.917 320.677 174.356C308.808 188.237 291.876 151.761 290.927 149.945C284.536 138.721 266.593 156.392 263.148 126.79C262.637 122.402 257.475 114.261 245.423 115.334C244.864 115.383 244.304 115.395 243.744 115.37C233.871 115.054 224.243 107.254 233.617 87.3401C234.031 86.4748 234.347 85.5485 234.493 84.5979C234.943 81.7462 234.834 76.8469 230.172 72.8983C229.794 72.5814 229.125 72.1305 228.699 71.8746C198.79 54.1423 183.987 70.1562 164.34 95.8588C161.127 100.076 141.005 98.8569 139.07 98.8813C139.07 98.8813 135.405 99.0275 134.76 95.4323C134.225 92.4586 128.673 61.3449 127.297 53.6914C127.127 52.7651 127.297 53.1673 126.677 50.9371C126.64 50.7908 126.616 50.7177 126.579 50.6202C124.656 44.5876 132.204 32.4126 133.348 29.9021C133.348 29.9021 134.87 26.6481 132.386 24.9907C127.152 21.0298 120.444 35.9469 117.352 41.7236C116.512 43.2958 116.427 43.4542 115.965 44.417C108.977 58.9806 61.0521 68.389 41.5267 32.4492C41.5267 32.4492 38.1917 25.9291 31.5209 9.37894C31.5209 9.37894 29.0261 2.70038 16.9383 2.50538C16.9383 2.50538 7.22399 2.06666 3.51124 9.11083C2.91477 10.232 2.57354 11.4995 2.51268 12.7792C1.11279 42.7839 116.05 77.8828 136.331 85.4023C137.292 85.7557 138.278 85.9751 139.288 86.0482C143.634 86.3407 154.066 85.6826 165.923 75.287C184.949 58.7368 185.582 55.8485 194.066 50.5227C194.359 50.3399 195.332 49.7915 195.649 49.6574C200.481 47.744 203.257 58.2494 207.798 53.0942C215.589 44.2463 225.801 43.6004 238.315 51.4855L238.34 51.4733Z" stroke="black" stroke-width="5" stroke-miterlimit="10"/>
</svg>
