<svg width="274" height="239" viewBox="0 0 274 239" fill="none" xmlns="http://www.w3.org/2000/svg">
<path d="M27.0454 9.6656V210.434C27.0454 210.434 26.5648 225.068 41.6933 226.375C41.6933 226.375 47.1859 227.277 52.9041 222.033C58.6373 216.789 57.9768 209.983 57.9768 209.983L58.0075 177.979C58.0075 177.979 57.7216 168.092 67.2969 167.296C72.0846 166.89 74.8007 168.874 76.3166 170.947C77.6223 172.72 78.1786 174.929 78.0886 177.138C77.7884 184.966 76.5426 213.995 74.2163 220.621C74.2163 220.621 70.1333 230.703 80.2489 230.943C89.4191 231.153 156.672 235.631 169.099 236.457C171.08 236.593 173.076 236.412 174.967 235.826C178.314 234.775 182.967 232.295 185.293 226.451C189.15 216.714 194.793 198.473 194.793 198.473C194.793 198.473 196.489 192.523 203.678 187.881C209.651 184.034 227.916 173.577 233.904 170.151C236.141 168.874 238.063 167.041 239.248 164.742C240.179 162.954 240.824 160.715 240.389 158.191C239.578 153.398 232.915 143.12 229.748 138.447C227.872 135.668 227.241 132.152 228.397 128.996C228.697 128.185 229.117 127.374 229.688 126.623C232.795 122.551 251.57 96.9175 251.57 96.9175C251.57 96.9175 252.486 95.1595 256.628 95.6253C261.146 96.1512 262.466 95.43 262.466 95.43C262.466 95.43 265.197 94.4233 265.963 85.1677C266.773 75.3111 270.436 57.2507 270.871 51.2556C271.307 45.2755 270.541 37.1018 270.001 31.888C269.581 27.8011 266.038 20.7693 257.694 19.6574C252.141 18.9062 246.437 20.9195 242.625 25.0365C242.085 25.6224 241.56 26.2685 241.064 26.9747C237.627 31.9782 218.912 57.1155 218.912 57.1155C218.912 57.1155 216.33 60.8267 212.202 61.0221C207.76 61.2324 191.656 59.0688 175.672 62.9753C159.628 66.8819 101.532 78.5416 101.532 78.5416C101.532 78.5416 93.6062 79.6985 91.6401 87.4065C89.4639 95.9108 83.1759 109.298 83.1759 109.298C83.1759 109.298 77.4572 120.026 68.062 116.21C68.062 116.21 57.4066 113.355 58.4721 98.1496C58.6372 95.8507 58.7876 93.5518 58.7726 91.2529L58.7272 54.7114C58.7272 45.8164 57.2272 36.9515 54.0004 28.6576C52.5746 24.9764 50.7734 21.2952 48.5672 18.245C44.1698 12.1748 41.5727 8.49362 40.402 6.55536C39.6366 5.27821 38.5862 4.16632 37.2655 3.44511C35.9448 2.7239 34.144 2.21302 31.9378 2.67881C26.9851 3.73058 27 9.6806 27 9.6806L27.0454 9.6656Z" stroke="black" stroke-width="5" stroke-miterlimit="10"/>
<path d="M0.023645 160.322L0.0283203 164.924L4.69248 164.919L4.6878 160.317L0.023645 160.322Z" fill="white"/>
<path d="M4.67599 155.712L4.68066 160.314L9.34482 160.31L9.34015 155.708L4.67599 155.712Z" fill="white"/>
<path d="M0.0216562 151.132L0.0263672 155.734L4.69052 155.73L4.68581 151.128L0.0216562 151.132Z" fill="white"/>
<path d="M4.67599 146.517L4.68066 151.119L9.34482 151.114L9.34015 146.512L4.67599 146.517Z" fill="white"/>
<path d="M4.67794 164.904L4.68262 169.506L9.34678 169.501L9.3421 164.899L4.67794 164.904Z" fill="white"/>
<path d="M0.0392343 164.902L0.0439453 169.504L4.7081 169.499L4.70339 164.897L0.0392343 164.902Z" fill="black"/>
<path d="M0.0197387 155.71L0.0244141 160.312L4.68857 160.308L4.6839 155.706L0.0197387 155.71Z" fill="black"/>
<path d="M4.66036 151.119L4.66504 155.721L9.32919 155.716L9.32452 151.114L4.66036 151.119Z" fill="black"/>
<path d="M4.67794 160.306L4.68262 164.908L9.34678 164.903L9.3421 160.301L4.67794 160.306Z" fill="black"/>
<path d="M0.00216059 146.521L0.00683594 151.123L4.67099 151.118L4.66632 146.516L0.00216059 146.521Z" fill="black"/>
<path d="M9.35568 160.304L9.36035 164.906L14.0245 164.901L14.0198 160.299L9.35568 160.304Z" fill="white"/>
<path d="M9.33419 151.113L9.33887 155.715L14.003 155.71L13.9983 151.108L9.33419 151.113Z" fill="white"/>
<path d="M9.33419 164.904L9.33887 169.506L14.003 169.501L13.9984 164.899L9.33419 164.904Z" fill="black"/>
<path d="M9.33029 155.691L9.33496 160.293L13.9991 160.288L13.9944 155.686L9.33029 155.691Z" fill="black"/>
<path d="M9.32052 146.517L9.3252 151.119L13.9894 151.114L13.9847 146.512L9.32052 146.517Z" fill="black"/>
<path d="M20.0323 155.52L20.0391 160.52L29.0391 160.507L29.0323 155.507L20.0323 155.52Z" fill="black"/>
</svg>
