<svg width="291" height="167" viewBox="0 0 291 167" fill="none" xmlns="http://www.w3.org/2000/svg">
<path d="M108.871 50.6154C108.871 50.6154 240.282 48.524 243.23 48.2964C245.808 48.0972 258.157 47.201 259.354 36.7015C259.696 33.7281 258.926 30.7404 257.36 28.1796C255.123 24.509 251.15 17.3529 250.608 15.4749C250.167 13.9384 250.423 12.2739 250.793 10.9081C251.263 9.17239 252.403 7.69279 253.899 6.72536C254.853 6.1136 255.95 5.78642 257.075 5.78642C257.573 5.8291 258.456 6.07088 259.069 6.68264C263.114 10.6946 278.981 29.2465 283.326 35.5917C283.539 35.919 283.796 36.2035 284.024 36.5165C285.305 38.2238 287.456 40.8415 288.168 45.1949C288.781 48.9935 288.396 129.532 288.197 143.816C288.183 145.224 287.599 146.562 286.602 147.543L280.05 153.946C278.668 155.297 277.899 157.161 277.942 159.096L277.97 160.561C278.013 162.724 276.261 164.502 274.096 164.502H106.991C106.991 164.502 86.7082 163.833 60.785 148.966C34.876 134.113 36.044 137.101 23.7518 127.256C15.5618 120.697 8.51128 118.307 4.70826 117.439C3.11299 117.069 2.15867 115.419 2.61447 113.854L7.75638 95.8855C7.75638 95.8855 8.65372 90.0524 15.4051 88.2456C21.8859 86.5099 44.3337 79.6668 50.9 67.0191C50.9 67.0191 53.8199 62.3953 53.5778 49.7618C53.3641 38.5083 52.951 12.3735 53.8057 6.8392C53.9338 6.01404 54.062 5.47339 54.5178 4.94699C55.4294 3.86575 56.9677 3.58124 58.1927 4.26413C58.4633 4.42063 58.7482 4.59136 59.0615 4.80476C60.2865 5.62992 61.312 6.45505 62.0242 7.08103C63.3203 8.19073 64.8301 9.04434 66.5109 9.38579C68.8183 9.85527 71.7382 9.55654 73.1768 5.85754C73.1768 5.85754 74.2024 2.64223 77.1935 2.54264C81.609 2.40037 90.7533 2.25814 97.2911 9.07284C98.8009 10.652 106.265 16.9261 104.74 46.3331C104.74 46.3331 104.57 50.7861 108.843 50.6154H108.871Z" stroke="black" stroke-width="5" stroke-linecap="round" stroke-linejoin="round"/>
<path d="M279.5 34.1439L282.635 38.0391L289.647 32.3963L286.512 28.5011L279.5 34.1439Z" fill="black"/>
</svg>
