<svg width="337" height="139" viewBox="0 0 337 139" fill="none" xmlns="http://www.w3.org/2000/svg">
<path d="M38.7245 84.1712C40.5205 84.8031 41.3772 84.1194 41.821 83.6946C43.4622 82.1303 44.381 81.0011 44.8249 80.4106C45.1448 79.9858 45.4552 79.5611 45.7855 79.157L48.5827 75.6554C48.5827 75.6554 65.3245 54.9462 63.3427 49.756C61.3713 44.5657 63.3427 41.7582 63.3427 41.7582C74.6555 24.0326 93.9369 20.6657 97.787 19.35C101.637 18.0343 103.742 20.3031 103.742 20.3031C103.742 20.3031 152.864 57.7848 153.742 60.1986C154.619 62.6021 152.626 62.5503 156.26 65.8965C159.893 69.2427 160.595 68.3 162.701 65.6064C164.807 62.9025 167.202 65.5339 167.202 65.5339C180.94 78.5769 204.566 90.5839 215.786 93.8472C227.006 97.1105 247.237 109.231 266.518 104.632C285.8 100.022 303.698 87.507 303.698 87.507C303.698 87.507 331.918 63.7002 333.6 62.053C334.199 61.4625 334.436 60.7891 334.488 60.1572C334.58 59.1108 334.127 58.0749 333.374 57.3393C330.442 54.4904 328.253 53.3094 328.253 53.3094L317.23 47.798C316.043 47.2075 314.701 46.907 313.38 47.1246C309.809 47.6944 309.457 50.9888 309.457 50.9888C309.457 50.9888 307.775 57.1529 308.167 62.8507C308.559 68.559 304.595 68.0721 304.595 68.0721C300.498 67.2744 301.819 63.8763 301.819 63.8763C304.565 58.5514 304.648 54.2003 304.648 54.2003C304.648 54.2003 304.792 47.943 307.713 45.6017C311.522 42.5456 311.903 39.8209 311.903 39.8209C313.111 35.1176 309.705 32.5484 309.705 32.5484C307.95 30.9633 304.307 31.8335 304.307 31.8335C304.307 31.8335 273.321 36.4747 265.011 36.827C256.702 37.1792 249.56 40.1421 249.56 40.1421C246.257 41.406 242.696 43.9234 243.109 48.3263C243.325 50.6469 243.387 53.6512 243.397 55.9615C243.407 59.4424 242.892 62.9232 241.643 66.1762C238.918 73.3245 234.645 75.9351 234.645 75.9351C219.44 85.5594 207.24 74.7852 207.24 74.7852C207.24 74.7852 192.707 63.5863 189.776 61.504C186.834 59.4216 183.551 57.6812 173.952 54.4697C164.353 51.2581 161.669 49.3519 161.669 49.3519C155.011 43.8198 145.401 37.4796 136.948 32.2376C122.941 23.5457 109.379 14.139 96.404 3.94502L95.8153 3.47883C93.4516 1.55191 91.8307 3.06443 91.8307 3.06443L91.1906 3.60315C87.8876 6.37957 84.2236 8.67944 80.3426 10.5546C79.1762 11.114 78.1026 11.6838 77.0807 12.2536C71.8991 15.1129 67.0483 18.5419 62.6099 22.4579C22.5817 57.6605 8.97686 102.829 7.80017 113.034C7.19118 118.317 5.67455 117.032 3.59985 119.28C1.52515 121.529 3.02126 124.036 3.02126 124.036C9.40018 132.634 20.1253 137.866 22.6026 136.188C23.3251 135.701 23.7477 134.623 24.0057 133.95C24.5941 132.437 24.3883 130.738 23.7174 129.267C21.0028 123.321 20.1769 117.82 20.7963 110.858C21.4569 103.399 28.2483 90.646 30.0134 86.9269C30.0134 86.9269 31.8303 83.2388 32.6664 82.669C32.6664 82.669 33.6464 81.7884 34.9263 82.4618C36.2062 83.1352 38.7456 84.1919 38.7456 84.1919L38.7245 84.1712Z" stroke="black" stroke-width="5" stroke-linecap="round" stroke-linejoin="round"/>
<path d="M34.8792 57.7522L37.7412 53.6523L30.3615 48.5006L27.4995 52.6005L34.8792 57.7522Z" fill="black"/>
</svg>
