<svg width="41" height="23" viewBox="0 0 41 23" fill="none" xmlns="http://www.w3.org/2000/svg">
<rect x="1.25614" y="1.25608" width="37.6838" height="20.098" rx="3.76838" fill="#181E27"/>
<rect x="1.25614" y="1.25608" width="37.6838" height="20.098" rx="3.76838" stroke="url(#paint0_linear_584_1570)" stroke-width="2.51225"/>
<path d="M13.233 15.0244V7.27304H15.3V13.3191H19.2377V15.0244H13.233ZM26.1545 12.5026H21.7208V12.544C21.7208 12.9367 21.8069 13.1985 21.9791 13.3294C22.1514 13.4604 22.4477 13.5258 22.868 13.5258H26.0099V15.0244H22.9816C22.3753 15.0244 21.862 14.959 21.4417 14.828C21.0283 14.6902 20.6941 14.5008 20.4392 14.2596C20.1912 14.0116 20.0086 13.7153 19.8914 13.3708C19.7812 13.0263 19.7261 12.6473 19.7261 12.2339V11.4484C19.7261 10.6285 19.9638 9.97396 20.4392 9.48477C20.9146 8.98868 21.6932 8.74063 22.7749 8.74063H23.1884C23.7671 8.74063 24.2494 8.80953 24.6353 8.94734C25.0211 9.08514 25.3243 9.28151 25.5448 9.53644C25.7721 9.78449 25.9306 10.0842 26.0202 10.4356C26.1098 10.787 26.1545 11.1763 26.1545 11.6035V12.5026ZM23.4157 10.1255H22.6096C22.2789 10.1255 22.048 10.1979 21.9171 10.3426C21.7862 10.4873 21.7208 10.7284 21.7208 11.066V11.2004H24.2942V11.066C24.2942 10.7284 24.2253 10.4873 24.0875 10.3426C23.9566 10.1979 23.7327 10.1255 23.4157 10.1255ZM30.1462 10.3219C29.7397 10.3219 29.4399 10.4149 29.247 10.601C29.061 10.7801 28.968 11.0557 28.968 11.4278V12.4923C28.968 12.9057 29.061 13.1813 29.247 13.3191C29.4399 13.4569 29.7397 13.5258 30.1462 13.5258H32.4716V15.0244H30.0842C28.9749 15.0244 28.1756 14.7833 27.6864 14.301C27.1972 13.8186 26.9526 13.1537 26.9526 12.3063V11.5518C26.9526 10.7043 27.1972 10.0394 27.6864 9.55711C28.1756 9.06791 28.9749 8.82331 30.0842 8.82331H32.4716V10.3219H30.1462Z" fill="white"/>
<rect x="6.2807" y="6.28076" width="2.51225" height="10.049" fill="#E03A3E"/>
<defs>
<linearGradient id="paint0_linear_584_1570" x1="20.098" y1="1.25608" x2="20.098" y2="17.5857" gradientUnits="userSpaceOnUse">
<stop stop-color="#FC8E28"/>
<stop offset="1" stop-color="#FCB827"/>
</linearGradient>
</defs>
</svg>
